<svg width="58" height="58" viewBox="0 0 58 58" fill="none" xmlns="http://www.w3.org/2000/svg">
<rect width="58" height="58" rx="29" fill="#F5F5F5"/>
<path d="M29 21.2083C24.6968 21.2083 21.2083 24.6967 21.2083 28.9999C21.2083 33.3031 24.6968 36.7916 29 36.7916C33.0495 36.7916 36.377 33.7027 36.7558 29.7523C36.7734 29.5684 36.6789 29.3919 36.5162 29.3046C36.3534 29.2173 36.1541 29.2362 36.0107 29.3526C35.2227 29.9921 34.2192 30.3749 33.125 30.3749C30.5937 30.3749 28.5416 28.3229 28.5416 25.7916C28.5416 24.2882 29.265 22.9538 30.3847 22.1173C30.5327 22.0067 30.5999 21.818 30.555 21.6387C30.51 21.4595 30.3619 21.3247 30.1792 21.297C29.7944 21.2385 29.4006 21.2083 29 21.2083Z" fill="#555555"/>
</svg>
