<svg width="58" height="58" viewBox="0 0 58 58" fill="none" xmlns="http://www.w3.org/2000/svg">
<rect width="58" height="58" rx="29" fill="#299764"/>
<path fill-rule="evenodd" clip-rule="evenodd" d="M31.3851 32.4458C28.7348 34.5685 24.8554 34.4014 22.3986 31.9446C19.7626 29.3086 19.7626 25.0347 22.3986 22.3987C25.0346 19.7626 29.3085 19.7626 31.9445 22.3987C34.4013 24.8554 34.5684 28.7349 32.4457 31.3851L37.6014 36.5408C37.8943 36.8337 37.8943 37.3085 37.6014 37.6014C37.3085 37.8943 36.8336 37.8943 36.5407 37.6014L31.3851 32.4458ZM23.4593 30.8839C21.409 28.8337 21.409 25.5096 23.4593 23.4593C25.5095 21.4091 28.8336 21.4091 30.8839 23.4593C32.9326 25.5081 32.9341 28.8288 30.8884 30.8794C30.8869 30.8809 30.8854 30.8824 30.8839 30.8839C30.8824 30.8854 30.8809 30.8869 30.8794 30.8884C28.8288 32.9342 25.508 32.9327 23.4593 30.8839Z" fill="white"/>
</svg>
